<?xml version="1.0" standalone="no"?>
<!DOCTYPE svg PUBLIC "-//W3C//DTD SVG 20010904//EN" "http://www.w3.org/TR/2001/REC-SVG-20010904/DTD/svg10.dtd">
<svg version="1.0" xmlns="http://www.w3.org/2000/svg" width="64pt" height="64pt" viewBox="0 0 64 64" preserveAspectRatio="xMidYMid meet">
<g transform="translate(0,64) scale(0.1,-0.1)" fill="#cccccc" stroke="none">
<path d="M247 596 c-144 -40 -237 -188 -207 -331 32 -153 185 -256 335 -225
152 32 256 185 225 334 -33 162 -198 266 -353 222z m171 -229 l93 -93 -26 -24
-26 -24 -69 69 -70 69 -73 -72 -73 -73 -24 26 -24 26 94 94 c52 52 97 95 100
95 3 0 47 -42 98 -93z"/>
</g>
</svg>
